<?xml version="1.0" encoding="utf-8"?>
<!-- Generator: Adobe Illustrator 24.3.0, SVG Export Plug-In . SVG Version: 6.00 Build 0)  -->
<svg version="1.1" id="Layer_1" xmlns="http://www.w3.org/2000/svg" xmlns:xlink="http://www.w3.org/1999/xlink" x="0px" y="0px"
	 viewBox="0 0 192 28" style="enable-background:new 0 0 192 28;" xml:space="preserve">
<style type="text/css">
	.st0{fill-rule:evenodd;clip-rule:evenodd;fill:#FF007A;}
</style>
<path class="st0" d="M90.3,0.9C85.8,2,83.7,5.4,85,9.6c0.5,1.8,2.2,3.6,4.6,4.9c4.2,2.4,5.5,3.4,6.2,4.9c0.6,1.2,0.7,1.7,0.4,2.8
	c-0.7,2.6-2.6,4.1-5.3,4.1c-2.7,0-4.7-1.5-5.1-4c-0.2-1-0.4-1.3-0.9-1.3c-0.6,0-0.6,0.3-0.6,2.8v2.8l1.8,0.6
	c2.8,0.9,6.7,0.8,9.1-0.3c4.6-2.1,6.4-6.3,4.3-10.2c-0.8-1.5-2.7-3.1-6-5.1c-3.5-2.1-5-3.6-5.3-5.1c-0.3-2.4,1.8-4.3,4.7-4.3
	c2.3,0,3.3,0.5,4.1,2.2c0.5,1.1,0.9,1.4,1.5,1.4c0.7,0,0.8-0.1,0.6-0.7c-0.1-0.4-0.2-1.5-0.2-2.3c0-1.1-0.2-1.6-0.5-1.8
	C97.3,0.7,91.5,0.5,90.3,0.9z M0.9,1.9c0,0.5,0.2,0.7,0.8,0.7c1.6,0,1.7,0.5,1.9,10.2c0.2,8.5,0.2,9.2,0.9,10.4c1,1.8,2.3,3,4.4,3.9
	c1.4,0.6,2.3,0.8,5.1,0.8c3,0,3.6-0.1,5.3-0.9c1.1-0.5,2.4-1.5,3-2.2c1.9-2.3,2.1-3.4,2.4-12.9c0.2-9.1,0.2-9.3,1.8-9.3
	c0.4,0,0.6-0.3,0.6-0.7c0-0.6-0.2-0.7-4.1-0.7c-3.8,0-4.1,0-4.1,0.6c0,0.5,0.3,0.7,1.1,0.8c1.8,0.2,1.9,0.9,2,9.2
	c0,8.4-0.3,10-2.1,11.8c-1.7,1.6-3,2.1-5.3,2.1c-3.3,0-5.7-1.5-6.4-4.2c-0.3-0.9-0.4-4.2-0.3-9.9L7.9,3l1.2-0.4
	c0.7-0.2,1.2-0.6,1.3-0.9c0.1-0.5-0.4-0.5-4.7-0.5C1.2,1.2,0.9,1.2,0.9,1.9z M32.4,1.9c0,0.5,0.2,0.7,1,0.7c1.7,0,2.7,0.7,3.1,2.1
	c0.2,0.8,0.3,4.7,0.3,10.3c-0.1,9.9-0.3,10.6-2.3,11c-0.7,0.1-1,0.4-1,0.8c0,0.6,0.3,0.6,4.7,0.6c4.3,0,4.7-0.1,4.7-0.6
	c0-0.4-0.4-0.7-1.5-1c-1.3-0.4-1.5-0.5-1.9-1.7c-0.4-1.4-0.5-16.5-0.1-16.5c0.1,0,1.5,1.4,2.9,3.1c1.5,1.7,5.5,6.1,8.9,9.9
	c5.4,5.8,6.4,6.8,7.2,6.8h1l0.1-11.9c0.1-8.4,0.2-12,0.5-12.3C60.3,3,61,2.7,61.6,2.6c0.7-0.1,1.1-0.4,1.1-0.7
	c0-0.4-0.8-0.5-4.7-0.6c-4.5-0.1-4.7-0.1-4.7,0.6c0,0.5,0.2,0.7,0.8,0.7c0.5,0,1.3,0.4,1.8,0.8l1,0.8l0.1,8.1c0.1,4.6,0,8.1-0.2,8.1
	c-0.2,0-1.2-1-2.3-2.3c-1.1-1.2-4.2-4.7-7-7.6C44.9,7.4,42,4.2,41,3.1l-1.7-1.9l-3.5,0C32.7,1.2,32.4,1.2,32.4,1.9z M68,1.9
	c0,0.5,0.2,0.7,1,0.7c0.5,0,1.2,0.2,1.6,0.5c0.6,0.4,0.7,1,0.8,10.3c0.1,11.6,0,12.2-2,12.5c-1,0.2-1.3,0.4-1.3,0.8
	c0,0.6,0.3,0.6,5.1,0.6c4.9,0,5.1,0,5.1-0.7c0-0.5-0.2-0.7-0.8-0.7c-0.4,0-1.1-0.2-1.4-0.5c-0.6-0.5-0.7-1-0.8-11
	C75.1,4.2,75.1,3.9,75.8,3.2c0.4-0.4,1.1-0.7,1.5-0.7c0.6,0,0.8-0.2,0.8-0.7c0-0.6-0.2-0.7-5.1-0.7C68.2,1.2,68,1.2,68,1.9z
	 M103.5,1.9c0.1,0.4,0.5,0.7,0.9,0.7c0.4,0,1.1,0.4,1.5,0.8c0.4,0.4,2.7,5.9,5.2,12.5l4.5,11.7l1.2,0.1l1.2,0.1l3.2-8.3
	c1.7-4.6,3.3-8.7,3.6-9.1c0.4-0.8,0.5-0.6,1.5,2c0.6,1.5,2.2,5.6,3.5,9.1l2.4,6.3h1.1c0.6,0,1.2-0.2,1.2-0.4
	c0.1-0.2,1.7-4.2,3.5-8.8c1.8-4.6,3.8-9.7,4.4-11.3c1.5-3.7,1.7-4.2,2.9-4.6c0.5-0.2,0.9-0.6,0.9-0.8c0-0.4-0.6-0.5-4.1-0.5
	c-3.8,0-4.1,0-4.1,0.7c0,0.5,0.2,0.7,0.8,0.7c1.3,0,1.9,0.4,1.9,1.2c0,0.7-6.5,18.1-6.9,18.4c-0.2,0.2-6.1-15.9-6.3-17.4
	c-0.2-1.5,0.4-2.2,1.8-2.2c0.6,0,0.8-0.2,0.8-0.7c0-0.6-0.2-0.7-5.3-0.7c-5,0-5.3,0-5.3,0.7c0,0.4,0.2,0.7,0.5,0.7
	c1.1,0,2.5,1,2.8,2c0.5,1.5,0.1,3-2.9,11l-2.6,6.8l-0.6-1.3c-0.3-0.7-1.9-5-3.5-9.4c-3.2-8.8-3.3-9.1-1.1-9.1c0.7,0,1-0.2,1-0.7
	c0-0.6-0.2-0.7-5.1-0.7C103.5,1.2,103.3,1.2,103.5,1.9z"/>
<path class="st0" d="M172.1,2.1c0,0,0,0.5,0.1,0.6c0.1,0.1,0.4,0.2,0.4,0.2c0.2,0.1,0.4,0.1,0.6,0.2c1,0.3,1.7,0.4,2,1.1
	c0.2,0.5,0.2,2,0.2,10.4c0,8.9,0,9.9-0.2,10.5c-0.3,0.7-0.9,1.1-2.2,1.5c0,0-0.6,0.2-0.7,0.3c-0.2,0.1-0.2,0.5-0.2,0.5
	s0,0.3,0.1,0.4c0.1,0.1,0.5,0.1,0.5,0.1l3.4,0l5.6,0c0,0,0.2,0,0.3-0.1c0.1-0.2,0.1-0.4,0.1-0.4s0-0.3-0.1-0.5
	c-0.1-0.1-0.7-0.3-0.7-0.3c-1.3-0.3-1.9-0.7-2.2-1.4c-0.2-0.5-0.2-1.8-0.3-4.5v-4c0.8,0.5,2.9,1.4,4.9,1.4c2.7,0.1,4.8-1.3,6.1-3.2
	c1.3-1.9,1.9-5,1-8.2c-1-3.2-3.8-5.1-6.8-5.3c-2.1-0.1-5.1,0-6.8,0.1c-0.2,0-0.3,0-0.5,0c-1.5,0.1-3.4,0.2-4.3,0.3l0,0
	c-0.2,0-0.3,0-0.3,0.1C172.1,1.9,172.1,2.1,172.1,2.1z M185.9,14.6c1.3-1.4,1.4-3.5,1.4-4.9c-0.1-2.2-0.8-6.5-4.8-6.5
	c-1.2-0.1-3.5,0.1-3.6,1.7c-0.1,0.3-0.1,2.3-0.1,5.3l0,4.8l0.5,0.3l0,0c0.3,0.1,0.6,0.3,1.3,0.5C181.6,16,184.6,16,185.9,14.6z"/>
<path class="st0" d="M156.5,1.4c0,0-0.2,0.1-0.6,0.2l-1.3,0.7l-1,2.4c-0.5,1.3-1.5,3.7-2.1,5.3c-1.2,2.9-2,4.9-2.8,6.9
	c-0.2,0.6-1,2.4-1.6,4c-0.7,1.6-1.3,3.2-1.4,3.4c-0.3,0.6-1,2-2.2,2.2c0,0-0.6,0.1-0.8,0.3c-0.2,0.2-0.2,0.4-0.2,0.4v0.3
	c0,0,0,0.1,0.1,0.2c0.1,0.1,0.3,0.1,0.3,0.1l4.1,0h4.2c0,0,0.3,0,0.4-0.1c0.1-0.1,0.1-0.2,0.1-0.2v-0.3c0,0-0.1-0.3-0.2-0.4
	c-0.2-0.1-0.8-0.2-0.8-0.2c-1.7-0.2-2-1.5-1.8-2.6c0.1-0.6,0.8-2.6,1.5-4.7l0.3-0.7l4.4,0c2.4,0,4.5,0,4.7,0c0.2,0,0.5,0.6,1.2,2.5
	c1.2,2.9,1.3,3.3,1,3.8c-0.2,0.5-0.7,1.7-2,1.8c0,0-0.6,0-0.8,0.2c-0.2,0.2-0.1,0.4-0.1,0.4v0.3c0,0,0,0.2,0.1,0.2
	c0.1,0.1,0.2,0.1,0.2,0.1l4,0l5.6,0c0,0,0.2,0,0.3-0.1c0.1-0.1,0.1-0.2,0.1-0.2V27c0,0,0-0.2-0.1-0.3c-0.1-0.1-0.8-0.2-0.8-0.2
	c-1.2-0.2-1.6-1.3-2-1.9c-0.2-0.2-0.7-1.4-1.2-2.6c-0.4-1.1-1.5-3.7-2.3-5.7c-0.8-2-1.9-4.8-2.4-6.2c-0.6-1.4-1.6-4.1-2.4-6
	c-0.7-1.9-1-2.6-1.1-2.7C157.1,1.1,156.5,1.4,156.5,1.4z M156.3,9.1c-0.2-0.4-0.5-1.2-0.7-1.7c-0.4-0.9-0.5-1.1-0.6-1
	c0,0.1-0.3,0.7-0.5,1.4c-1.6,4.7-2.4,6.8-2.5,7.2c-0.1,0.2-0.2,0.5-0.2,0.6c0,0.1,1.3,0.1,3.6,0.1c2,0,3.6,0,3.6-0.1
	c0,0-0.2-0.5-0.4-1c-0.2-0.5-0.7-1.8-1.2-2.9S156.5,9.5,156.3,9.1z"/>
</svg>
