<?xml version="1.0" encoding="utf-8"?>
<!-- Generator: Adobe Illustrator 24.3.0, SVG Export Plug-In . SVG Version: 6.00 Build 0)  -->
<svg version="1.1" id="Layer_1" xmlns="http://www.w3.org/2000/svg" xmlns:xlink="http://www.w3.org/1999/xlink" x="0px" y="0px"
	 viewBox="0 0 285 329" style="enable-background:new 0 0 285 329;" xml:space="preserve">
<style type="text/css">
	.st0{fill:#FF007A;}
</style>
<path class="st0" d="M144.2,168c6.5,11.4-8,14.9-14.8,15.6c-10.3,1-12.4-4.9-10.4-12.4c0.7-2.7,2.1-5.1,4.2-6.9
	c2.1-1.8,4.6-2.9,7.4-3.2c2.7-0.2,5.4,0.3,7.8,1.5C140.8,163.8,142.8,165.7,144.2,168L144.2,168z"/>
<path class="st0" d="M184.6,146.9c-7.5,57.5,93.9,45.6,91.9,91.3c10-13,14.3-48.3-15.1-66.5C235.1,155.6,200.9,164.4,184.6,146.9z"
	/>
<path class="st0" d="M243,125.2c-0.7-0.6-1.3-1.2-2-1.8C241.6,124.1,242.3,124.7,243,125.2z"/>
<path class="st0" d="M266.5,167.1L266.5,167.1c-1-1.8-2-3.4-3.2-5c-3.4-4.6-8.3-7.9-13.9-9.4c-3.7-1-7.5-1.6-11.3-1.8
	c-3.9-0.3-7.8-0.4-11.8-0.6c-8-0.4-16.2-1.3-24.2-3.5c-2-0.6-4-1.2-5.9-1.9c-1-0.4-1.9-0.8-2.9-1.2c-1-0.4-2-0.9-3-1.4
	c-3.8-2.1-7.2-4.6-10.4-7.5c-6.2-5.7-11-12.2-15.9-18.5c-4.6-6.3-9.5-12.4-14.7-18.2c-5.2-5.7-11.2-10.4-18-14.1
	c-7-3.5-14.6-5.7-22.4-6.4c8.1-0.9,16.3,0.1,23.9,2.9c7.7,3,14.8,7.5,20.8,13.2c3.9,3.7,7.6,7.6,11,11.7c25.4-5,46-0.6,61.8,8.1
	l0.4,0.2c5,2.7,9.8,6,14.1,9.8c0.7,0.6,1.4,1.2,2,1.8c3.4,3.1,6.5,6.4,9.4,10l0.2,0.3C261.9,147.4,266.5,159.7,266.5,167.1z"/>
<path class="st0" d="M266.5,167.1l-0.1-0.1L266.5,167.1z"/>
<path class="st0" d="M110.2,85c6.5,0.9,13.1,3.5,17.3,8.4c4.3,4.9,5.8,11.3,7.1,17.4c1,4.7,1.8,9.5,3.7,14c0.9,2.2,2.2,4.1,3.3,6.2
	c0.9,1.7,2.6,3.2,3.2,5.1c0.1,0.3,0.2,0.6,0.1,0.8c0,0.3-0.1,0.6-0.3,0.8c-2.3,2.5-8.4-0.3-10.7-1.4c-4-2-7.5-4.7-10.5-8
	c-9.2-10.3-14-25-13.7-38.4C109.8,88.3,110,86.6,110.2,85z"/>
<path class="st0" d="M218.6,200.6c-14,39.1,49.5,65.3,25.7,105c24.4-10.1,36-40.5,25.9-64.7C261.3,219.7,235.1,212,218.6,200.6z"/>
<path class="st0" d="M134.6,251.7c3.8-2.9,8-5.2,12.4-7.1c4.5-1.8,9.1-3.1,13.9-4c9.4-1.8,18.7-2.2,26.5-5.4
	c3.9-1.5,7.4-3.7,10.5-6.5c3-2.8,5.2-6.2,6.6-10c1.4-4,2-8.3,1.7-12.5c-0.4-4.6-1.4-9.1-3.1-13.3c3.5,3.6,6,8.1,7.4,12.9
	c1.4,4.8,1.5,9.9,0.4,14.9c-1.2,5.2-3.9,10-7.6,13.8c-3.7,3.7-8.2,6.5-13.2,8.2c-4.7,1.7-9.6,2.7-14.6,3c-4.8,0.4-9.4,0.5-14,0.8
	C152.4,246.7,143.3,248.5,134.6,251.7L134.6,251.7z"/>
<path class="st0" d="M224.2,320.4c-1.4,1.1-2.8,2.3-4.4,3.4c-1.6,1-3.2,1.9-4.9,2.7c-3.5,1.7-7.4,2.6-11.3,2.6
	c-10.6-0.2-18.2-8.1-22.6-17.1c-3-6.1-5.1-12.7-8.6-18.5c-5.1-8.3-13.8-15-24-13.8c-4.2,0.5-8.1,2.4-10.4,6
	c-6.1,9.4,2.7,22.6,13.8,20.8c0.9-0.1,1.9-0.4,2.8-0.8c0.9-0.4,1.7-0.9,2.4-1.5c1.6-1.3,2.7-3,3.4-4.9c0.7-2,0.9-4.1,0.5-6.2
	c-0.5-2.2-1.7-4.1-3.6-5.3c2.1,1,3.8,2.8,4.7,5c0.9,2.3,1.1,4.7,0.6,7.1c-0.4,2.5-1.5,4.8-3.2,6.7c-0.9,1-1.9,1.8-3,2.5
	c-1.1,0.7-2.3,1.3-3.5,1.7c-2.5,0.9-5.2,1.1-7.8,0.8c-3.7-0.5-7.2-2-10.1-4.4c-3.4-2.7-6-6.3-9.1-9.3c-3.6-3.7-7.8-6.8-12.4-9.1
	c-3.2-1.4-6.6-2.4-10-3.1c-1.7-0.4-3.5-0.6-5.2-0.8c-0.8-0.1-4.7-0.9-5.3-0.4c5.4-5,11.3-9.4,17.6-13.2c6.5-3.8,13.4-6.8,20.6-8.8
	c7.5-2.1,15.4-2.7,23.1-1.8c4,0.5,7.9,1.5,11.6,3c3.9,1.6,7.5,3.8,10.6,6.6c3.1,2.9,5.6,6.4,7.4,10.3c1.6,3.6,2.8,7.4,3.6,11.3
	c2.3,11.6,1.4,29.7,16.7,32.3c0.8,0.2,1.6,0.3,2.4,0.3l2.5,0.1c1.7-0.1,3.4-0.4,5.1-0.7C217.6,323,221,321.8,224.2,320.4
	L224.2,320.4z"/>
<path class="st0" d="M135.7,307.7l-0.4-0.3L135.7,307.7z"/>
<path class="st0" d="M122,143.6c-0.6,2.1-1.5,4.1-2.8,5.9c-2.5,3.2-5.7,5.7-9.5,7.2c-3.4,1.4-6.9,2.4-10.6,2.8
	c-0.8,0.1-1.6,0.2-2.4,0.2c-2.3,0.1-4.5,0.9-6.3,2.4c-1.8,1.4-3.1,3.4-3.7,5.6c-0.3,1.1-0.5,2.2-0.6,3.4c-0.4,2.9-0.4,6-0.7,9.7
	c-0.8,6.3-2.6,12.4-5.4,18.1c-3.6,7.6-7.7,13.8-6.7,22.5c0.6,5.7,3.5,9.5,7.4,13.5c7,7.2,22.7,10.4,19.2,28
	c-2.1,10.5-19.6,21.6-44.1,25.4c2.4-0.4-3.1-9.8-3.5-10.4c-2.6-4.1-5.5-8-7.6-12.5c-4.1-8.7-6-18.7-4.3-28.2
	c1.8-10,9.2-17.7,15.3-25.3c7.3-9.1,15-21,16.7-32.8c0.4-2.9,0.7-6.4,1.3-10c0.6-3.9,1.8-7.8,3.7-11.3c1.2-2.3,2.9-4.4,4.8-6.2
	c1-0.9,1.7-2.2,1.9-3.6c0.2-1.4,0-2.8-0.7-4L44.2,73.7l56.2,69.3c0.6,0.8,1.4,1.5,2.4,1.9c0.9,0.5,1.9,0.7,3,0.7c1,0,2-0.2,3-0.6
	c0.9-0.4,1.8-1,2.4-1.8l0,0c0.7-0.8,1.1-1.9,1.1-3c0-1.1-0.3-2.2-1-3c-3.7-4.7-7.6-9.5-11.3-14.2l-14.1-17.5L57.5,70.7L0.6,0.9
	l60.6,66.6L91.3,101l15.1,16.7c5,5.6,10,11.1,15,17l0.8,1l0.2,1.5C122.6,139.4,122.5,141.5,122,143.6L122,143.6z"/>
<path class="st0" d="M135,307.2c-2.7-2.1-5.1-4.6-7.2-7.3C130,302.5,132.4,305,135,307.2L135,307.2z"/>
</svg>
