<?xml version="1.0" encoding="utf-8"?>
<!-- Generator: Adobe Illustrator 24.3.0, SVG Export Plug-In . SVG Version: 6.00 Build 0)  -->
<svg version="1.1" id="Layer_1" xmlns="http://www.w3.org/2000/svg" xmlns:xlink="http://www.w3.org/1999/xlink" x="0px" y="0px"
	 viewBox="0 0 325.3 116" style="enable-background:new 0 0 325.3 116;" xml:space="preserve">
<style type="text/css">
	.st0{fill-rule:evenodd;clip-rule:evenodd;fill:#13D871;}
	.st1{fill-rule:evenodd;clip-rule:evenodd;fill:#FFFFFF;}
	.st2{fill-rule:evenodd;clip-rule:evenodd;fill:#0D976B;}
	.st3{enable-background:new    ;}
	.st4{fill:#FFFFFF;}
</style>
<g>
	<path class="st0" d="M116,58c0,32-26,58-58,58S0,90,0,58S26,0,58,0S116,26,116,58"/>
	<path class="st1" d="M74.4,30.9l-3.3-3.3c-8.6-8.6-22.2-9.2-31.5-1.9l-5.2-5.2l-4.1,4.1l5.2,5.2c-7.3,9.4-6.7,22.9,1.9,31.5
		l3.3,3.3l4.1-4.1l-3.3-3.3c-7-7-7-18.5,0-25.5c6.8-6.8,17.6-7,24.7-0.8l-5.8,5.8c-4.1-2.7-9.1-2.3-12.6,1.1
		c-4.1,4.1-3.9,10.5,0.4,14.9l6.6,6.6L45.1,69l4.1,4.1l9.7-9.7l6.6,6.6c3.2,3.2,1.7,5.4,0.9,6.2c-2.2,2.2-4.9,1-6.5-0.6l-2.2-2.2
		l-13.8,14l3.4,3.4c8.6,8.6,22.3,9.2,31.6,1.8l-0.1,0.1l5.3,5.3l4.1-4.1l-5.3-5.3l-0.1,0.1c7.4-9.4,6.8-23-1.8-31.6l-3.3-3.3
		l-4.1,4.1l3.3,3.3c7,7,7,18.5,0,25.5c-6.8,6.8-17.7,7-24.7,0.8l5.8-5.8c4.1,2.7,9.1,2.3,12.6-1.1c4-4,3.6-9.9-0.9-14.4L63,59.4
		l10.1-10.1L69,45.2L58.9,55.3l-6.6-6.6c-1.7-1.7-2.6-4.5-0.5-6.7c2.2-2.2,4.9-1,6.5,0.6l2.2,2.2L74.4,30.9z"/>
</g>
<g>
	<g>
		<polygon class="st2" points="303.1,56.9 282.2,87.9 265.9,87.9 286.8,56.9 267.3,25.9 283.5,25.9 		"/>
		<polygon class="st0" points="307.7,25.9 323.9,25.9 304.4,56.9 325.3,87.9 309,87.9 288.1,56.9 		"/>
	</g>
	<g class="st3">
		<path class="st4" d="M153.4,87.9V62.5l-19.6-36.6h16l6.3,14.9c1.9,4.5,3.2,7.8,4.8,11.9h0.2c1.4-3.9,2.9-7.5,4.7-11.9l6.3-14.9
			h15.7L167.4,62v25.9H153.4z"/>
		<path class="st4" d="M192.9,25.9h37.9v11.5H207v14.2h22.3V63H207v24.9h-14.1V25.9z"/>
		<path class="st4" d="M255.5,25.9v62h-14.1v-62H255.5z"/>
	</g>
</g>
</svg>
